<?xml version="1.0" encoding="utf-8"?>
<!-- Generator: Adobe Illustrator 19.1.0, SVG Export Plug-In . SVG Version: 6.00 Build 0)  -->
<svg version="1.1" id="Layer_1" xmlns="http://www.w3.org/2000/svg" xmlns:xlink="http://www.w3.org/1999/xlink" x="0px" y="0px"
	 viewBox="0 0 1005.1 503" enable-background="new 0 0 1005.1 503" xml:space="preserve">
<g display="none">
	<path display="inline" fill="#878787" d="M76.1,248.9l2.3,1.2c2.1,1,3.7,1.6,4.7,3.6c0.1,0.5,1.1,5.8,1.8,8c-1.8,0.5-4,0.2-6.1-1
		c-2.5-1.3-4-3.7-4.4-6.1c0-0.1,0-0.3,0-0.3l-0.1-0.7L73,248l-0.4-2C73.6,247.1,74.8,248.1,76.1,248.9 M83.8,212.1
		c-1.9-0.4-3.6-1.7-4.9-3.6c-1.4-2.3-2-5.1-1.2-7.4c0-0.1,0.1-0.3,0.1-0.3l0.3-0.7c0.6-1.8,1-3.7,1.4-5.5l0.6-2
		c0.4,1.5,1,2.9,1.8,4.2l1.6,2.1c1.5,1.8,2.5,3.1,2.5,5.2C85.7,204.7,84.4,209.9,83.8,212.1 M81.4,237c-1.9,0-4-0.8-5.7-2.4
		c-1.9-1.9-3-4.5-2.9-6.9c0-0.1,0-0.3,0-0.3l0-0.8c0.2-1.9,0.2-3.8,0.1-5.7l0.1-2.1c0.8,1.3,1.7,2.6,2.9,3.7l2,1.7
		c1.8,1.4,3.1,2.4,3.6,4.5C81.6,229.3,81.2,234.7,81.4,237 M89.2,205.2c1.2-1.7,2.9-2.1,5.1-2.5l2.4-0.5c1.4-0.4,2.7-0.9,4-1.5
		l-0.8,1.5c-0.7,1.3-1.4,2.7-1.9,4.2l-0.2,0.6l-0.1,0.2c-0.7,1.9-2.2,3.6-4.6,4.7c-2,1-4.2,1.3-6,0.9
		C87.7,210.7,89,205.7,89.2,205.2 M88.1,183.9c-1-2.6-0.7-5.4,0.6-7.5c0-0.1,0.1-0.2,0.1-0.2l0.4-0.7l2.7-5l1-1.8
		c0.1,1.5,0.3,3.1,0.8,4.5l1,2.4c1,2.1,1.8,3.6,1.2,5.7c-0.3,0.4-3,5.2-3.9,7.2C90.3,187.7,88.9,186.1,88.1,183.9 M98.9,183
		c1.6-1.4,3.2-1.4,5.5-1.3l2.6,0.1c1.5,0,2.9-0.2,4.2-0.5l-1.1,1.3c-1.1,1.1-2.1,2.3-2.9,3.7l-0.3,0.5l-0.1,0.2
		c-1,1.7-3.1,3-5.6,3.6c-2.1,0.5-4.3,0.3-6-0.5C96,188,98.5,183.4,98.9,183 M102.7,162.1c-0.3-2.7,0.6-5.4,2.3-7.2l0.2-0.2l0.5-0.5
		c1.4-1.3,2.6-2.8,3.8-4.3l1.4-1.5c-0.3,1.5-0.4,3.1-0.2,4.6l0.4,2.6c0.5,2.3,0.8,3.9-0.2,5.8c-0.3,0.4-4.1,4.4-5.4,6.2
		C104,166.3,102.9,164.3,102.7,162.1 M113.4,163.7c1.8-1,3.5-0.6,5.7,0l2.4,0.6c1.5,0.3,2.8,0.4,4.2,0.5l-1.4,1
		c-1.2,0.9-2.5,1.8-3.7,2.9l-0.4,0.4l-0.2,0.2c-1.3,1.5-3.6,2.3-6.2,2.2c-2.2-0.1-4.2-0.7-5.7-1.9
		C109.5,167.9,113.1,164.1,113.4,163.7 M122.1,144.2c0.3-2.7,1.8-5.2,3.9-6.5l0.2-0.1l0.7-0.4l4.6-3.3l1.7-1.1
		c-0.6,1.4-1.1,2.9-1.3,4.4l-0.2,2.6c-0.1,2.4-0.1,4-1.5,5.7c-0.5,0.2-4.9,3.3-6.7,4.7C122.4,148.6,121.8,146.5,122.1,144.2
		 M137.6,149.5l2.2,1.2c1.3,0.7,2.7,1.1,4,1.5l-1.6,0.7c-1.5,0.5-2.9,1.1-4.2,2l-0.5,0.3l-0.2,0.1c-1.7,1-4.1,1.3-6.6,0.7
		c-2.1-0.5-4-1.7-5.2-3.1c1.7-1.3,6-4.4,6.5-4.6C134.1,147.7,135.6,148.4,137.6,149.5 M141.4,138.8c0.1-2.4,4.2-6,6.8-7.1
		c1.6-0.7,3.4-1,5.4-1.3l2.1-0.4c0,0,1.7-0.5,2.5-0.7c-0.6,1.1-1.1,2.2-1.7,3.3c-1.4,2.9-2.7,5.6-5.1,7.6c-1.7,1.4-6.1,2-8.5,0.8
		C141.8,140.6,141.4,139.9,141.4,138.8L141.4,138.8z M85,229c0.6-2,2.2-2.7,4.3-3.6l2.3-1.1c1.3-0.7,2.5-1.5,3.5-2.3l-0.3,1.6
		c-0.4,1.5-0.8,3-1,4.5l0,0.6v0.2c-0.1,2-1.3,4-3.4,5.7c-1.7,1.4-3.6,2.2-5.6,2.3C84.7,234.7,85.1,229.5,85,229 M89.8,248.6l2-1.6
		c1.1-1,2.1-2,2.9-3.1l0,1.7c0,1.5-0.2,3.1,0.2,4.6l0.1,0.6l0,0.2c0.4,1.9-0.5,4.3-1.9,6.3c-1.3,1.7-3.1,3-4.9,3.5
		c-0.7-2.1-1.6-7.2-1.7-7.7C86.7,251,87.9,249.9,89.8,248.6 M93.9,284.9c-1.7,0.9-3.8,1.1-6.1,0.4c-2.6-0.8-4.9-2.6-5.8-4.9
		c0-0.1-0.1-0.3-0.1-0.3l-0.3-0.7c-0.7-1.8-1.8-3.4-2.5-5.1l-0.8-1.9c1.3,0.9,2.6,1.6,4.1,2.1l2.6,0.6c2.3,0.4,4,0.7,5.3,2.4
		C90.5,278.1,92.9,282.9,93.9,284.9 M95.7,271l1.5-2c0.9-1.2,1.6-2.5,2.1-3.7l0.4,1.6c0.2,1.5,0.7,3,1.3,4.5l0.3,0.6l0.1,0.2
		c0.7,1.9,0.6,4.2-0.4,6.6c-0.9,2-2.3,3.6-4,4.6c-1-1.9-3.4-6.6-3.5-7.1C93.3,274.1,94.3,272.8,95.7,271 M108.2,305.4
		c-1.4,1.2-3.6,2-5.9,1.8c-2.7-0.2-5.3-1.5-6.8-3.4l-0.2-0.2L95,303c-1.1-1.6-2.4-3-3.6-4.4l-1.3-1.6c1.4,0.6,3,0.9,4.5,1h2.6
		c2.3-0.1,4-0.2,5.7,1.1C103.4,299.5,106.7,303.8,108.2,305.4 M106.7,291.5l1-2.3c0.6-1.4,0.8-2.7,1.2-4l0.8,1.5
		c0.7,1.4,1.4,2.8,2.3,4.1l0.4,0.5l0.1,0.2c1.2,1.6,1.7,3.9,1.2,6.5c-0.4,2.2-1.4,4-2.8,5.3c-1.5-1.6-4.7-5.8-5.1-6.1
		C105,295.1,105.7,293.5,106.7,291.5 M120.4,317.1c0.4,0.4,4.6,3.7,6.5,5c-1.1,1.5-3,2.7-5.3,3.1c-2.8,0.6-5.4-0.3-7.4-1.8l-0.2-0.2
		l-0.6-0.5l-4.6-3.4l-1.6-1.3c1.5,0.2,3.1,0.2,4.6-0.1l2.5-0.6C116.7,316.8,118.4,316.2,120.4,317.1 M122.1,308.9l0.5-2.5
		c0.2-1.5,0.3-2.9,0.2-4.2l1.1,1.3c0.9,1.2,1.9,2.5,3.1,3.5l0.5,0.4l0.2,0.1c1.6,1.2,2.4,3.6,2.6,6c0.1,2.2-0.4,4.3-1.5,5.8
		c-1.9-1.2-6-4.5-6.3-4.8C121.4,312.7,121.6,311.2,122.1,308.9 M141.4,330.7c0.4,0.4,5.4,2.4,7.5,3.3c-0.7,1.7-2.2,3.3-4.4,4.2
		c-2.5,1-5.4,1.2-7.6,0c-0.1-0.1-0.2-0.1-0.2-0.1l-0.7-0.4c-1.7-0.9-3.5-1.5-5.2-2.3l-1.9-0.9c1.5-0.2,3-0.5,4.5-1.1l2.4-1.2
		C137.9,331.1,139.3,330.3,141.4,330.7 M140.4,315.6l1.3,1c1.2,1,2.5,1.8,3.9,2.6l0.6,0.3l0.2,0.1c1.8,1,3.3,2.7,4,5.2
		c0.6,2.1,0.6,4.3-0.1,6c-2-0.9-6.9-2.9-7.3-3.2c-1.5-1.5-1.6-3.1-1.7-5.4l-0.1-2.5C141,318.3,140.7,316.9,140.4,315.6 M227.4,324.8
		c0.7-2.5,2.2-4.2,4-5.2l0.2-0.1l0.6-0.3c1.4-0.7,2.7-1.6,3.9-2.6l1.3-1c-0.4,1.3-0.6,2.7-0.8,4.2l-0.1,2.5
		c-0.1,2.2-0.2,3.9-1.7,5.4c-0.4,0.4-5.3,2.3-7.3,3.2C226.8,329.1,226.8,326.9,227.4,324.8 M241.9,332.2l2.4,1.2
		c1.5,0.6,2.9,0.9,4.5,1.1l-1.9,0.9c-1.7,0.8-3.6,1.4-5.3,2.3l-0.7,0.4c0,0-0.2,0.1-0.2,0.1c-2.1,1.2-5.1,1-7.6,0
		c-2.1-0.9-3.7-2.5-4.4-4.2c2.1-0.9,7.1-3,7.5-3.3C238.4,330.3,239.9,331.1,241.9,332.2 M247.4,313.5c0.2-2.5,1-4.8,2.6-6l0.2-0.1
		l0.5-0.4c1.2-1,2.2-2.3,3.1-3.5l1.1-1.3c-0.1,1.3,0,2.8,0.2,4.2l0.5,2.5c0.5,2.3,0.7,3.8-0.4,5.6c-0.4,0.4-4.5,3.6-6.3,4.8
		C247.8,317.7,247.2,315.6,247.4,313.5 M257.4,317.1c2-0.9,3.7-0.3,5.9,0.3l2.5,0.6c1.5,0.2,3.1,0.2,4.6,0.1l-1.6,1.3l-4.5,3.4
		l-0.6,0.5l-0.2,0.2c-1.9,1.5-4.6,2.3-7.4,1.8c-2.3-0.4-4.2-1.6-5.3-3.1C252.7,320.8,257,317.5,257.4,317.1 M264.2,297.8
		c-0.5-2.6-0.1-4.9,1.2-6.5l0.1-0.2l0.4-0.5c0.9-1.3,1.6-2.7,2.3-4.1l0.8-1.5c0.3,1.4,0.6,2.7,1.2,4l1,2.3c1,2,1.6,3.6,0.9,5.6
		c-0.3,0.4-3.5,4.5-5.1,6.1C265.5,301.9,264.6,300,264.2,297.8 M274.7,299.1c1.7-1.3,3.4-1.2,5.7-1.1h2.6c1.6-0.1,3.2-0.4,4.5-1
		l-1.3,1.6c-1.2,1.4-2.5,2.8-3.6,4.4l-0.4,0.6l-0.2,0.2c-1.5,1.9-4.1,3.2-6.8,3.4c-2.3,0.2-4.4-0.6-5.9-1.8
		C271.1,303.8,274.4,299.5,274.7,299.1 M276.8,278.8c-1-2.3-1.1-4.7-0.4-6.6l0.1-0.2l0.3-0.6c0.6-1.5,1.1-2.9,1.3-4.5l0.4-1.6
		c0.6,1.2,1.3,2.5,2.2,3.7l1.5,2c1.4,1.8,2.4,3.1,2.2,5.2c-0.1,0.5-2.4,5.2-3.5,7.1C279.1,282.4,277.7,280.7,276.8,278.8
		 M287.4,277.5c1.4-1.7,3-2,5.3-2.4l2.6-0.6c1.5-0.5,2.8-1.2,4.1-2.1l-0.8,1.9c-0.8,1.7-1.8,3.3-2.5,5.1l-0.3,0.7
		c0,0-0.1,0.2-0.1,0.3c-0.9,2.3-3.1,4.1-5.8,4.9c-2.2,0.7-4.4,0.5-6.1-0.4C284.9,282.9,287.3,278.1,287.4,277.5 M289.6,260.8
		c-1.8-0.5-3.6-1.8-4.9-3.5c-1.5-2-2.4-4.3-2-6.3l0-0.2l0.1-0.6c0.4-1.5,0.2-3.1,0.2-4.6l0-1.7c0.8,1.1,1.8,2.1,2.9,3.1l2,1.6
		c1.9,1.4,3,2.4,3.3,4.5C291.2,253.6,290.2,258.7,289.6,260.8 M294.6,253.7c0.9-1.9,2.6-2.6,4.7-3.6l2.3-1.2
		c1.3-0.8,2.5-1.8,3.6-2.9l-0.4,2l-1.2,5.6l-0.1,0.7c0,0,0,0.2-0.1,0.3c-0.5,2.4-2,4.8-4.4,6.1c-2,1.2-4.2,1.5-6.1,1
		C293.6,259.5,294.6,254.2,294.6,253.7 M291.8,204.2c-0.1-2.1,1-3.4,2.5-5.2l1.6-2.1c0.9-1.3,1.4-2.7,1.8-4.2l0.6,2
		c0.4,1.8,0.8,3.7,1.3,5.5l0.3,0.7c0,0,0.1,0.2,0.1,0.3c0.8,2.3,0.2,5.2-1.2,7.4c-1.3,1.9-3,3.2-4.9,3.6
		C293.4,209.9,292.1,204.7,291.8,204.2 M292.9,236.9c-1.9-0.1-3.9-0.9-5.6-2.3c-2-1.6-3.3-3.7-3.4-5.7l0-0.2l0-0.6
		c-0.2-1.6-0.6-3.1-1-4.5l-0.4-1.6c1,0.8,2.2,1.7,3.5,2.3l2.3,1.1c2.1,0.9,3.7,1.7,4.3,3.6C292.7,229.5,293.1,234.7,292.9,236.9
		 M284.5,211.9c-2.4-1.1-3.9-2.9-4.6-4.7l-0.1-0.2l-0.2-0.6c-0.5-1.5-1.2-2.9-1.9-4.2l-0.8-1.5c1.3,0.6,2.6,1.1,4,1.5l2.4,0.5
		c2.2,0.4,3.8,0.8,5.1,2.5c0.2,0.5,1.5,5.5,2,7.7C288.7,213.2,286.5,212.9,284.5,211.9 M281.8,181.3c-0.5-2.1,0.3-3.6,1.2-5.7l1-2.4
		c0.5-1.5,0.7-3,0.8-4.5l1,1.8l2.7,5l0.4,0.7c0,0,0.1,0.2,0.1,0.2c1.2,2.1,1.6,4.9,0.6,7.5c-0.8,2.2-2.2,3.8-3.9,4.7
		C284.8,186.5,282.2,181.8,281.8,181.3 M276.6,190.5c-2.4-0.6-4.5-1.8-5.6-3.6l-0.1-0.2l-0.3-0.5c-0.7-1.4-1.8-2.5-2.9-3.7l-1.1-1.3
		c1.3,0.3,2.7,0.5,4.2,0.5l2.6-0.1c2.3-0.1,3.9-0.1,5.4,1.3c0.3,0.4,2.9,5,3.7,7C280.9,190.8,278.7,191,276.6,190.5 M266.8,161.3
		c-1-1.9-0.7-3.5-0.2-5.8l0.4-2.6c0.2-1.5,0.1-3.2-0.2-4.6l1.4,1.5c1.2,1.5,2.4,3,3.8,4.3l0.6,0.5l0.2,0.2c1.7,1.8,2.5,4.5,2.3,7.2
		c-0.2,2.3-1.3,4.2-2.8,5.4C270.9,165.7,267.1,161.8,266.8,161.3 M263.8,171.5c-2.6,0.1-4.9-0.7-6.2-2.2l-0.2-0.2l-0.4-0.4
		c-1.1-1.1-2.4-2-3.7-2.9l-1.3-1c1.4-0.1,2.8-0.1,4.2-0.5l2.4-0.6c2.2-0.6,3.8-1,5.7,0c0.3,0.4,3.9,4.2,5.2,6
		C268.1,170.9,266.1,171.4,263.8,171.5 M247.5,145.4c-1.4-1.6-1.4-3.3-1.5-5.7l-0.2-2.6c-0.2-1.5-0.7-3-1.3-4.4l1.7,1.1l4.7,3.3
		l0.6,0.4l0.2,0.1c2.1,1.3,3.6,3.7,3.9,6.5c0.3,2.3-0.3,4.4-1.4,5.9C252.5,148.7,248,145.6,247.5,145.4 M247,156
		c-2.5,0.6-4.9,0.3-6.6-0.7l-0.2-0.1l-0.5-0.3c-1.3-0.9-2.7-1.5-4.2-2l-1.6-0.7c1.3-0.3,2.7-0.8,4-1.5l2.2-1.2
		c2-1.1,3.5-1.8,5.5-1.2c0.5,0.2,4.8,3.2,6.5,4.6C251,154.3,249.1,155.4,247,156 M236.3,138.9c0,1-0.5,1.7-1.4,2.2
		c-2.4,1.2-6.9,0.5-8.5-0.8c-2.5-2-3.8-4.7-5.1-7.6c-0.5-1.1-1.1-2.2-1.7-3.3c0.8,0.2,2.5,0.7,2.5,0.7l2.1,0.4
		c1.9,0.3,3.8,0.6,5.4,1.3C232.1,132.8,236.2,136.5,236.3,138.9L236.3,138.9z M296.2,228.8c0.6-2.1,1.8-3.1,3.7-4.5l2-1.7
		c1.1-1.1,2-2.3,2.8-3.7l0.1,2.1c0,1.9-0.1,3.8,0.1,5.7l0,0.8c0,0,0,0.2,0,0.3c0.1,2.4-1,5.1-2.9,6.9c-1.7,1.6-3.8,2.4-5.7,2.4
		C296.5,234.7,296.1,229.3,296.2,228.8 M86,263.3c1.1,3.9,2.4,7.8,3.9,11.5c-2.1-1.3-4.6-1.3-7-2.1c-2.9-1-6.6-3.2-8.1-6.5
		c0,5.2,3.7,9.9,5.6,14.6c2.3,6.1,10.3,8.6,15,5.5c2,3.5,4.1,7,6.5,10.2c-2.3-0.7-4.7-0.2-7.3-0.4c-3.2-0.2-7-1.7-9.4-4.4
		c1.3,5,6,8.7,8.8,12.9c3.8,5.3,12,5.9,15.9,1.8c2.7,3,5.7,5.8,8.7,8.5c-2.4-0.2-4.6,0.8-7.2,1.2c-3.2,0.5-7.3,0-10.2-2.2
		c2.4,4.6,7.8,7.1,11.6,10.5c4.8,4.4,13.1,3,15.9-1.8c3.3,2.3,6.8,4.3,10.5,6.2c-2.4,0.4-4.3,2-6.7,2.9c-2.9,1.1-7.1,1.7-10.4,0.2
		c3.4,3.9,9.2,5.2,13.7,7.6c5.8,3.1,13.5-0.1,15-5.5c3.9,1.5,7.8,2.7,11.9,3.7l6.2,1.5c3.8,0.9,8.8,2.3,14.3,4
		c-14.3,3.6-29.4,7.8-36,11.2l5.9,4c6.9-3.6,22-9.1,35.6-13.4c13.7,4.4,28.7,9.9,35.6,13.4l5.9-4c-6.6-3.4-21.6-7.6-36-11.2
		c5.5-1.7,10.5-3.1,14.3-4l6.2-1.5c4.1-1,8.1-2.3,11.9-3.7c1.5,5.4,9.3,8.6,15,5.5c4.5-2.4,10.4-3.6,13.7-7.6
		c-3.3,1.5-7.5,0.9-10.4-0.2c-2.4-1-4.3-2.5-6.7-2.9c3.6-1.9,7.1-4,10.5-6.2c2.8,4.8,11.1,6.3,15.9,1.8c3.8-3.4,9.2-5.9,11.6-10.5
		c-2.9,2.2-7,2.7-10.2,2.2c-2.6-0.4-4.7-1.4-7.2-1.2c3.1-2.6,6-5.5,8.7-8.5c3.9,4.1,12.2,3.5,15.9-1.8c2.9-4.2,7.5-7.9,8.8-12.9
		c-2.4,2.7-6.2,4.2-9.4,4.4c-2.6,0.2-5-0.3-7.3,0.4c2.4-3.3,4.5-6.7,6.5-10.2c4.7,3.1,12.7,0.7,15-5.5c1.9-4.7,5.6-9.4,5.6-14.6
		c-1.5,3.3-5.2,5.5-8.1,6.5c-2.4,0.8-4.9,0.8-7,2.1c1.5-3.7,2.8-7.6,3.9-11.5c5.3,1.9,12.6-2.3,13.4-8.8c0.7-5,3.2-10.4,2-15.5
		c-0.8,3.5-3.6,6.6-6.4,8.2c-2.3,1.4-4.6,2-6.4,3.8c0.6-4,1-8.1,1.2-12.2c5.6,0.7,11.6-5.1,11-11.6c-0.6-5.1,0.7-10.9-1.7-15.5
		c-0.1,3.6-1.9,7.2-4.3,9.4c-1.9,1.9-4,3-5.3,5.1c-0.3-4.1-0.9-8.1-1.7-12.1c5.6-0.6,10.1-7.6,8-13.8c-1.7-4.8-1.9-10.7-5.2-14.7
		c0.9,3.5-0.3,7.5-1.9,10.2c-1.4,2.2-3.3,3.8-4,6.1c-1.3-3.8-2.7-7.6-4.4-11.3c5.2-1.9,8.1-9.8,4.4-15.3c-2.7-4.3-4.3-10-8.5-13.1
		c1.7,3.2,1.5,7.3,0.5,10.3c-0.8,2.4-2.2,4.4-2.4,6.8c-2.1-3.4-4.5-6.7-7-9.9c4.7-3.2,5.5-11.4,0.8-15.9c-3.7-3.5-6.6-8.7-11.4-10.8
		c2.3,2.8,3.2,6.8,2.9,10c-0.3,2.6-1.2,4.8-0.8,7.2c-2.9-2.8-5.9-5.5-9.1-8c3.8-4.1,2.8-12.3-2.9-15.6c-4-2.6-9.1-7.2-12.8-7.7
		c2.4,2.1,3.7,5.6,4.4,8.9c0.4,2.6,0,5,1,7.3c-2.3-1.4-4.7-2.7-7.2-4c0.2-0.5,0.3-1.1,0.3-1.7c-0.1-3.3-5-7.4-7.8-8.6
		c-2.5-1-5.3-1.3-7.9-1.8c-2.3-0.4-4.6-1.6-6.8-1.8c4.1,4.5,4.7,11,9.7,15c2.4,1.9,8.4,2.7,11.3,0.5c2.5,1.3,5,2.7,7.4,4.2
		c-2.5,0.1-4.4,1.7-6.7,2.9c-2.5,1.5-6.4,2.2-9.6,1.3c4.1,3.8,8,3.4,11.6,6.1c4.1,2.8,11.5,1.4,14.8-3.3c3.2,2.5,6.3,5.3,9.2,8.1
		c-2.5-0.5-4.8,0.6-7.3,1.2c-3,0.7-6.7,0.9-9.2-0.3c2.2,3.5,6.7,4.9,9.5,8c3.3,3.7,10.9,4,15.1,0.2c2.6,3.2,4.9,6.6,7.1,10.1
		c-2.3-1.1-4.8-0.5-7.4-0.5c-3,0-6.6-0.7-8.9-2.4c1.4,3.8,5.4,6.3,7.4,9.9c2.4,4.3,9.7,6.4,14.7,3.7c1.7,3.7,3.2,7.5,4.5,11.4
		c-2-1.5-4.5-1.6-7-2.2c-3.1-0.7-6.3-2.2-8.1-4.4c0.4,4.1,3.8,7.4,4.8,11.4c1.2,4.7,7.9,8.4,13.4,7c0.8,3.9,1.3,8,1.7,12
		c-1.6-1.9-4.1-2.5-6.3-3.7c-2.6-1.4-5.7-3.6-6.8-6.2c-0.5,4,1.9,8,2.1,12.2c0.1,4.9,5.7,10.1,11.3,9.9c-0.1,4.1-0.5,8.1-1.1,12
		c-1.1-2.2-3.4-3.3-5.3-5c-2.3-2-4.5-4.8-5.2-7.6c-1.4,3.8,0,8.3-0.8,12.3c-0.9,4.8,3.2,11.1,8.8,12.2c-1.1,3.9-2.4,7.8-3.9,11.5
		c-0.5-2.4-2.4-4-3.9-6.1c-1.9-2.5-3.2-5.7-3.3-8.6c-2.3,3.3-1.9,8.1-3.7,11.8c-2.1,4.4,0.6,11.5,5.7,13.9c-2,3.6-4.2,7.1-6.6,10.4
		c0.1-2.5-1.4-4.6-2.4-7c-1.1-2.8-2-6.4-1.2-9.1c-3.1,2.7-3.8,7.4-6.4,10.6c-3.2,3.8-2.2,11.4,2.3,14.9c-2.8,3-5.7,5.9-8.8,8.5
		c0.6-2.4-0.4-4.8-0.8-7.3c-0.4-3-0.4-6.6,1-9.1c-3.6,2-5.4,6.3-8.7,8.9c-3.8,3.1-4.8,10.5-1.2,15c-3.4,2.3-6.9,4.4-10.6,6.2
		c1.2-2.2,0.8-4.6,1-7.2c0.2-3.1,1.2-6.5,3-8.7c-4,1.1-6.7,4.9-10.5,6.6c-4.5,2-7.1,9.1-4.7,14.3c-3.8,1.4-7.7,2.7-11.7,3.7
		l-6.1,1.5c-4.9,1.1-11.9,2.8-19.4,4.6c-7.5-1.8-14.4-3.4-19.4-4.6l-6.1-1.5c-4-1-7.9-2.2-11.8-3.7c2.3-5.1-0.3-12.3-4.7-14.3
		c-3.8-1.7-6.5-5.5-10.5-6.6c1.9,2.2,2.9,5.5,3,8.7c0.2,2.6-0.2,5,1,7.2c-3.7-1.9-7.2-4-10.6-6.2c3.5-4.5,2.6-11.9-1.2-15
		c-3.3-2.5-5.1-6.9-8.7-8.9c1.3,2.5,1.4,6.2,0.9,9.1c-0.4,2.5-1.4,4.9-0.8,7.3c-3.1-2.7-6-5.5-8.8-8.5c4.4-3.5,5.4-11.1,2.3-14.9
		c-2.6-3.2-3.3-7.9-6.4-10.6c0.8,2.7,0,6.3-1.2,9.1c-1,2.4-2.4,4.4-2.4,7c-2.4-3.3-4.6-6.8-6.6-10.4c5.1-2.4,7.8-9.5,5.7-13.9
		c-1.8-3.7-1.4-8.4-3.7-11.8c-0.1,2.9-1.4,6.1-3.3,8.6c-1.6,2.1-3.4,3.7-4,6.1c-1.5-3.7-2.8-7.6-3.9-11.5c5.6-1.2,9.7-7.4,8.8-12.2
		c-0.9-4,0.6-8.5-0.8-12.3c-0.7,2.8-2.9,5.6-5.2,7.6c-1.9,1.6-4.2,2.8-5.3,5c-0.6-3.9-1-8-1.1-12c5.7,0.2,11.3-5,11.3-9.9
		c0.1-4.1,2.6-8.1,2-12.2c-1.2,2.6-4.2,4.8-6.8,6.2c-2.2,1.2-4.7,1.8-6.3,3.7c0.3-4.1,0.9-8.1,1.7-12c5.4,1.4,12.1-2.3,13.4-7
		c1-4,4.4-7.3,4.8-11.4c-1.8,2.2-5.1,3.7-8.1,4.4c-2.5,0.6-5,0.7-7,2.2c1.3-3.9,2.8-7.7,4.5-11.4c5,2.7,12.3,0.6,14.7-3.7l7.4-9.9
		c-2.3,1.7-5.9,2.4-8.9,2.4c-2.6,0-5.1-0.6-7.4,0.5c2.2-3.5,4.5-6.9,7.1-10.1c4.2,3.8,11.9,3.5,15.1-0.2c2.8-3.1,7.3-4.5,9.5-8
		c-2.5,1.3-6.2,1-9.2,0.3c-2.5-0.6-4.8-1.7-7.3-1.2c2.9-2.9,6-5.6,9.2-8.1c3.3,4.7,10.7,6,14.8,3.3c3.6-2.6,7.5-2.3,11.6-6.1
		c-3.2,0.9-7.1,0.2-9.6-1.3c-2.3-1.2-4.3-2.7-6.7-2.9c2.4-1.5,4.9-2.9,7.4-4.1c2.9,2.2,8.9,1.4,11.2-0.5c5-4,5.6-10.5,9.7-15
		c-2.2,0.2-4.5,1.3-6.8,1.8c-2.6,0.5-5.4,0.7-7.9,1.8c-2.9,1.2-7.7,5.3-7.8,8.6c0,0.7,0.1,1.3,0.3,1.8c-2.4,1.2-4.8,2.6-7.1,4
		c0.9-2.3,0.6-4.7,1-7.3c0.7-3.2,2-6.8,4.4-8.9c-3.7,0.5-8.8,5.1-12.8,7.7c-5.7,3.3-6.8,11.6-2.9,15.6c-3.2,2.5-6.2,5.2-9.1,8
		c0.3-2.3-0.6-4.6-0.8-7.2c-0.3-3.2,0.6-7.1,2.9-10c-4.8,2.1-7.7,7.3-11.3,10.8c-4.7,4.5-3.9,12.7,0.8,15.9c-2.5,3.2-4.8,6.5-7,9.9
		c-0.2-2.4-1.6-4.3-2.4-6.8c-1-3-1.2-7.2,0.5-10.3c-4.2,3.1-5.8,8.8-8.5,13.1c-3.6,5.4-0.8,13.4,4.5,15.3c-1.7,3.7-3.2,7.4-4.4,11.3
		c-0.8-2.3-2.6-3.9-4-6.1c-1.6-2.6-2.8-6.6-1.9-10.2c-3.3,4-3.6,9.9-5.2,14.7c-2.1,6.2,2.3,13.2,8,13.8c-0.8,4-1.3,8-1.7,12.1
		c-1.3-2.1-3.4-3.2-5.3-5.1c-2.4-2.2-4.3-5.8-4.3-9.4c-2.4,4.7-1.1,10.5-1.7,15.5c-0.6,6.5,5.4,12.3,11,11.6
		c0.2,4.1,0.6,8.2,1.2,12.2c-1.7-1.8-4-2.4-6.4-3.8c-2.8-1.6-5.6-4.7-6.4-8.2c-1.3,5.1,1.3,10.4,2,15.5
		C73.4,261,80.7,265.2,86,263.3"/>
	<path display="inline" fill="#878787" d="M190.1,243.9c8.5,10.7,11.6,17.3,11.4,22c-0.2,5-2.9,9-5.6,14.4
		c-2.8,5.6-5.5,13.7-4.5,20.4c1-2.2,1.6-4.2,2.2-6.1c0.8-3,1.6-5.8,3.8-8.7c2.6-3.3,6.3-4.8,10.5-4.7c5.7,0,9.8,3.4,9.6,9.4
		c-0.3,7.7-7.1,8.9-10.3,9.6c-0.9,0.2-1.5,1.2-1.5,2.9c-1-0.2-1.3-0.8-1.4-1.5c-0.1-1.1,0.8-2.3,1.6-3.2c0.6-0.8,1-1.6,1.1-2.4
		c0.2-2.1-1.4-3.9-4-3.8c-3.7,0.2-7.3,3.3-10.1,9.1c-0.3,0.5-0.4,1.5-0.5,2.5h0.4c1.1,0,1.9,0.8,1.9,1.8v0c0,1-0.9,1.8-1.9,1.8H192
		v0.5c0,0.4-0.1,0.8-0.3,1.1c1.8,0.4,3.9,0.2,5.9,1.3c1.5,0.7,1.9,1.9,2.5,2.8c0.4,0.7,1.2,1.3,2.4,1.4c1.5,0.1,3.2-0.7,3.9-1.2
		c-0.3,3-2.8,5.2-6,5.3c-4.8,0.2-4.3-3.6-7-6.5c-0.6-0.6-1.8-1.2-2.6-1.9c-0.1-0.1-0.7-0.7-0.7-0.7c0,0-0.5,0.6-0.6,0.7
		c-0.8,0.7-2.1,1.3-2.7,1.9c-2.7,2.9-2.2,6.7-7,6.5c-3.2-0.1-5.7-2.3-6-5.3c0.7,0.5,2.4,1.3,3.9,1.2c1.2-0.1,2-0.7,2.5-1.4
		c0.6-0.9,1-2,2.5-2.8c2-1,4.1-0.8,5.9-1.3c-0.2-0.3-0.3-0.7-0.3-1.1v-0.5h-0.7c-1.1,0-1.9-0.8-1.9-1.8c0-1,0.9-1.8,1.9-1.8h0.4
		c0-1-0.2-1.9-0.5-2.5c-2.8-5.8-6.4-8.9-10.1-9.1c-2.6-0.1-4.2,1.7-4,3.8c0.1,0.8,0.4,1.7,1.1,2.4c0.8,0.9,1.7,2.1,1.6,3.2
		c-0.1,0.7-0.4,1.3-1.4,1.5c0.1-1.7-0.6-2.7-1.5-2.9c-3.2-0.7-10-1.9-10.3-9.6c-0.2-5.9,3.9-9.4,9.6-9.4c4.1,0,7.9,1.5,10.5,4.7
		c2.3,2.9,3,5.7,3.9,8.7c0.5,1.9,1.1,3.9,2.1,6.1c0.9-6.7-1.7-14.8-4.5-20.4c-2.7-5.4-5.4-9.4-5.6-14.4
		C178.5,261.1,181.6,254.6,190.1,243.9 M176.5,266c0.2,4.6,2.2,8.3,4.4,12.6l1.4,2.7c0.3,0.5,0.5,1.1,0.8,1.7
		c-2.8-2.6-6.4-4.1-10.7-4c-3.6,0-6.8,1.2-8.9,3.4c-1.9,2-2.9,4.7-2.9,7.7c0,0.2,0,0.3,0,0.5c0.3,9.1,8.2,10.8,11.6,11.6l0,0
		c0,0.1,0.1,0.2,0.1,0.6c0,0-0.1,2.9-0.1,2.9l2.7-0.5c1.8-0.3,3-1.6,3.2-3.5c0.2-2.1-1.3-3.9-2.1-4.8c-0.3-0.4-0.5-0.8-0.5-1.2
		c0-0.4,0.1-0.7,0.3-1c0.3-0.3,0.8-0.4,1.4-0.4c2.9,0.1,5.8,3,8.1,7.8c-1.2,0.7-2,1.9-2,3.4c0,0.7,0.2,1.3,0.5,1.9
		c-0.7,0.2-1.5,0.4-2.2,0.8c-1.8,0.9-2.6,2.2-3.1,3.1l-0.3,0.5c-0.2,0.3-0.5,0.4-0.7,0.4c-0.8,0-2-0.5-2.5-0.8l-4-2.6l0.5,4.7
		c0.4,4.1,3.9,7.1,8.2,7.3c4.6,0.2,6.1-2.7,7.2-4.7c0.5-0.9,0.9-1.8,1.6-2.5l0.9-0.6c0,0,0.4-0.3,0.7-0.5c0.4,0.3,0.7,0.5,0.7,0.5
		l0.9,0.6c0.7,0.7,1.1,1.6,1.6,2.5c1.1,2.1,2.5,4.9,7.2,4.7c4.3-0.2,7.8-3.3,8.2-7.3l0.5-4.7l-4,2.6c-0.6,0.4-1.8,0.9-2.5,0.8
		c-0.2,0-0.5-0.1-0.7-0.4c0,0-0.3-0.5-0.3-0.5c-0.5-0.9-1.3-2.2-3.1-3.1c-0.8-0.4-1.5-0.6-2.2-0.8c0.3-0.6,0.6-1.2,0.6-1.9
		c0-1.5-0.8-2.7-2-3.4c2.3-4.8,5.3-7.6,8.1-7.8c0.6,0,1.1,0.1,1.4,0.4c0.2,0.2,0.3,0.6,0.3,1c0,0.4-0.2,0.8-0.5,1.2
		c-0.8,0.9-2.3,2.7-2.1,4.8c0.2,1.9,1.4,3.2,3.2,3.5l2.7,0.5c0,0-0.1-2.9-0.1-2.9c0-0.4,0.1-0.5,0.1-0.6l0,0
		c3.4-0.7,11.3-2.5,11.6-11.6c0-0.2,0-0.3,0-0.5c0-3.1-1-5.8-2.9-7.7c-2.1-2.2-5.3-3.4-8.9-3.4c-4.3,0-7.9,1.4-10.7,4
		c0.3-0.6,0.5-1.2,0.8-1.7l1.4-2.7c2.3-4.3,4.2-8,4.5-12.6c0-0.2,0-0.4,0-0.6c0-5.5-3.7-12.6-11.8-22.9l-1.8-2.2l-1.8,2.2
		c-8.2,10.3-11.9,17.4-11.9,22.9C176.5,265.6,176.5,265.8,176.5,266"/>
	<path display="inline" fill="#878787" d="M212.2,202c4.1,0,7.9,1.5,10.5,4.7c2.3,2.9,3,5.7,3.9,8.7c0.5,1.9,1.1,3.9,2.2,6.1
		c0.9-6.7-1.7-14.8-4.5-20.4c-2.7-5.4-5.4-9.4-5.6-14.4c-0.2-4.7,2.8-11.3,11.4-22c8.5,10.7,11.6,17.3,11.4,22
		c-0.2,5-2.9,9-5.6,14.4c-2.8,5.6-5.5,13.7-4.5,20.4c1.1-2.2,1.6-4.2,2.1-6.1c0.8-3,1.6-5.8,3.9-8.7c2.6-3.3,6.4-4.8,10.5-4.7
		c5.7,0,9.8,3.4,9.6,9.4c-0.3,7.7-7.1,8.9-10.3,9.6c-0.9,0.2-1.5,1.2-1.5,2.9c-1-0.2-1.3-0.8-1.4-1.5c-0.1-1.1,0.8-2.3,1.6-3.2
		c0.7-0.8,1-1.6,1.1-2.4c0.2-2.1-1.4-3.9-4-3.8c-3.7,0.2-7.3,3.3-10.1,9.1c-0.3,0.5-0.5,1.5-0.5,2.5h0.4c1.1,0,1.9,0.8,1.9,1.8
		c0,1-0.9,1.8-1.9,1.8h-0.7v0.5c0,0.4-0.1,0.8-0.3,1.1c1.8,0.5,3.9,0.2,5.9,1.3c1.5,0.8,1.9,1.9,2.5,2.8c0.4,0.7,1.2,1.3,2.4,1.4
		c1.5,0.1,3.2-0.7,3.9-1.2c-0.3,3-2.8,5.2-6,5.3c-4.8,0.2-4.3-3.6-7-6.5c-0.6-0.6-1.8-1.2-2.6-1.9c-0.1-0.1-0.7-0.7-0.7-0.7
		c0,0-0.5,0.6-0.6,0.7c-0.8,0.7-2.1,1.3-2.6,1.9c-2.7,2.9-2.2,6.7-7,6.5c-3.2-0.1-5.7-2.3-6-5.3c0.7,0.5,2.4,1.3,3.9,1.2
		c1.2-0.1,2-0.7,2.4-1.4c0.6-0.9,1-2,2.5-2.8c2-1,4.1-0.8,5.9-1.3c-0.2-0.3-0.3-0.7-0.3-1.1v-0.5h-0.7c-1.1,0-1.9-0.8-1.9-1.8
		c0-1,0.9-1.8,1.9-1.8h0.4c0-1-0.2-1.9-0.5-2.5c-2.8-5.8-6.4-8.9-10.1-9.1c-2.6-0.1-4.2,1.7-4,3.8c0.1,0.8,0.4,1.7,1.1,2.4
		c0.8,0.9,1.7,2.1,1.6,3.2c-0.1,0.7-0.3,1.3-1.4,1.5c0.1-1.7-0.6-2.7-1.5-2.9c-3.2-0.7-10-1.9-10.3-9.6
		C202.4,205.4,206.5,202,212.2,202 M212,223C212,223,212,223,212,223c0.1,0.1,0.1,0.3,0.1,0.6c0,0-0.1,2.9-0.1,2.9l2.8-0.5
		c1.8-0.3,3-1.6,3.2-3.5c0.2-2.1-1.2-3.8-2.1-4.8c-0.3-0.4-0.5-0.8-0.5-1.2c0-0.4,0.1-0.7,0.3-0.9c0.3-0.3,0.8-0.5,1.4-0.4
		c2.9,0.1,5.8,3,8.1,7.8c-1.2,0.7-2,1.9-2,3.4c0,0.7,0.2,1.3,0.6,1.9c-0.7,0.2-1.5,0.4-2.2,0.8c-1.8,0.9-2.6,2.2-3.1,3.1l-0.3,0.5
		c-0.2,0.3-0.5,0.4-0.7,0.4c-0.8,0-2-0.4-2.5-0.8l-4-2.5l0.5,4.7c0.4,4.1,3.9,7.1,8.2,7.3c4.6,0.2,6.1-2.6,7.2-4.7
		c0.5-0.9,0.9-1.8,1.6-2.5l0.9-0.6c0,0,0.4-0.3,0.7-0.5c0.4,0.3,0.7,0.5,0.7,0.5l0.9,0.6c0.7,0.7,1.1,1.6,1.6,2.5
		c1.1,2.1,2.5,4.9,7.2,4.7c4.3-0.2,7.7-3.3,8.2-7.3l0.5-4.7l-4,2.5c-0.6,0.4-1.8,0.9-2.6,0.8c-0.2,0-0.5-0.1-0.7-0.4l-0.3-0.5
		c-0.5-0.9-1.3-2.2-3.1-3.1c-0.8-0.4-1.5-0.6-2.2-0.8c0.3-0.6,0.5-1.2,0.5-1.9c0-1.5-0.8-2.7-2-3.4c2.3-4.8,5.3-7.6,8.1-7.8
		c0.6,0,1.1,0.1,1.4,0.4c0.2,0.2,0.3,0.6,0.3,0.9c0,0.4-0.2,0.8-0.5,1.2c-0.8,0.9-2.3,2.7-2.1,4.8c0.2,1.9,1.4,3.2,3.2,3.5l2.7,0.5
		c0,0-0.1-2.9-0.1-2.9c0-0.4,0.1-0.5,0.1-0.6c0,0,0,0,0,0c3.4-0.7,11.3-2.5,11.6-11.6c0-0.2,0-0.3,0-0.5c0-3.1-1-5.7-2.9-7.7
		c-2.1-2.2-5.3-3.4-8.9-3.5c-4.3,0-7.9,1.4-10.7,4c0.3-0.6,0.5-1.2,0.8-1.7l1.4-2.7c2.3-4.3,4.2-8,4.4-12.6c0-0.2,0-0.4,0-0.6
		c0-5.5-3.7-12.6-11.9-22.9l-1.8-2.2l-1.8,2.2c-8.2,10.3-11.9,17.4-11.9,22.9c0,0.2,0,0.4,0,0.6c0.2,4.6,2.2,8.3,4.4,12.6l1.4,2.7
		c0.3,0.5,0.5,1.1,0.8,1.7c-2.8-2.6-6.4-4.1-10.7-4c-3.6,0-6.8,1.2-8.9,3.5c-1.9,2-2.9,4.7-2.9,7.7c0,0.2,0,0.4,0,0.5
		C200.7,220.5,208.6,222.3,212,223"/>
	<path display="inline" fill="#878787" d="M151.5,221.5c1-2.2,1.6-4.2,2.1-6.1c0.8-3,1.6-5.8,3.8-8.7c2.6-3.3,6.3-4.8,10.5-4.7
		c5.7,0,9.8,3.4,9.6,9.4c-0.3,7.7-7.1,8.9-10.3,9.6c-0.9,0.2-1.5,1.2-1.5,2.9c-1-0.2-1.3-0.8-1.4-1.5c-0.1-1.1,0.8-2.3,1.6-3.2
		c0.7-0.8,1-1.6,1.1-2.4c0.2-2.1-1.4-3.9-4-3.8c-3.7,0.2-7.3,3.3-10.1,9.1c-0.3,0.5-0.4,1.5-0.5,2.5h0.4c1.1,0,1.9,0.8,1.9,1.8
		c0,1-0.9,1.8-1.9,1.8h-0.7v0.5c0,0.4-0.1,0.8-0.3,1.1c1.8,0.5,3.9,0.2,5.9,1.3c1.5,0.8,1.9,1.9,2.5,2.8c0.5,0.7,1.2,1.3,2.4,1.4
		c1.5,0.1,3.2-0.7,3.9-1.2c-0.3,3-2.8,5.2-6,5.3c-4.8,0.2-4.3-3.6-7-6.5c-0.6-0.6-1.8-1.2-2.6-1.9c-0.1-0.1-0.7-0.7-0.7-0.7
		s-0.5,0.6-0.6,0.7c-0.8,0.7-2.1,1.3-2.6,1.9c-2.7,2.9-2.2,6.7-7,6.5c-3.2-0.1-5.7-2.3-6-5.3c0.7,0.4,2.4,1.3,3.9,1.2
		c1.2-0.1,2-0.7,2.5-1.4c0.6-0.9,1-2,2.5-2.8c2-1,4.1-0.8,5.9-1.3c-0.2-0.3-0.3-0.7-0.3-1.1v-0.5h-0.7c-1.1,0-1.9-0.8-1.9-1.8
		c0-1,0.9-1.8,1.9-1.8h0.4c0-1-0.2-1.9-0.5-2.5c-2.8-5.8-6.4-8.9-10.1-9.1c-2.6-0.1-4.2,1.7-4,3.8c0.1,0.8,0.4,1.7,1.1,2.4
		c0.8,0.9,1.7,2.1,1.6,3.2c-0.1,0.7-0.4,1.3-1.4,1.5c0.1-1.7-0.6-2.7-1.5-2.9c-3.2-0.7-10-1.9-10.3-9.6c-0.2-5.9,3.9-9.4,9.6-9.4
		c4.1,0,7.9,1.5,10.5,4.7c2.3,2.9,3,5.7,3.9,8.7c0.5,1.9,1.1,3.9,2.2,6.1c0.9-6.7-1.7-14.8-4.5-20.4c-2.7-5.4-5.4-9.4-5.6-14.4
		c-0.2-4.7,2.8-11.3,11.4-22c8.5,10.7,11.6,17.3,11.4,22c-0.2,5-2.9,9-5.6,14.4C153.2,206.6,150.5,214.8,151.5,221.5 M159.4,199.4
		c2.3-4.3,4.2-8,4.4-12.6c0-0.2,0-0.4,0-0.6c0-5.5-3.7-12.6-11.8-22.9l-1.8-2.2l-1.8,2.2c-8.2,10.3-11.8,17.4-11.8,22.9
		c0,0.2,0,0.4,0,0.6c0.2,4.6,2.2,8.3,4.4,12.6l1.4,2.7c0.3,0.5,0.5,1.1,0.8,1.7c-2.8-2.6-6.4-4.1-10.7-4c-3.6,0-6.8,1.2-8.9,3.5
		c-1.9,2-2.9,4.7-2.9,7.7c0,0.2,0,0.3,0,0.5c0.3,9.1,8.2,10.8,11.6,11.6c0,0,0,0,0.1,0c0,0.1,0.1,0.2,0.1,0.6c0,0-0.1,2.9-0.1,2.9
		l2.7-0.5c1.8-0.3,3-1.6,3.2-3.5c0.2-2.1-1.3-3.9-2.1-4.8c-0.3-0.4-0.5-0.8-0.5-1.2c0-0.4,0.1-0.7,0.3-0.9c0.3-0.3,0.8-0.5,1.4-0.4
		c2.9,0.1,5.8,3,8.1,7.8c-1.2,0.7-2,1.9-2,3.4c0,0.7,0.2,1.3,0.6,1.9c-0.7,0.2-1.5,0.4-2.2,0.8c-1.8,0.9-2.6,2.2-3.1,3.1l-0.3,0.5
		c-0.2,0.3-0.5,0.4-0.7,0.4c-0.8,0-2-0.5-2.6-0.8l-4-2.5l0.5,4.7c0.4,4.1,3.9,7.1,8.2,7.3c4.6,0.2,6.1-2.6,7.2-4.7
		c0.5-0.9,0.9-1.8,1.6-2.5c0,0,0.9-0.6,0.9-0.6s0.4-0.3,0.7-0.5c0.4,0.3,0.7,0.5,0.7,0.5l0.9,0.6c0.7,0.7,1.1,1.6,1.6,2.5
		c1.1,2.1,2.5,4.9,7.2,4.7c4.3-0.2,7.8-3.3,8.2-7.3l0.5-4.7l-4,2.5c-0.6,0.4-1.7,0.9-2.5,0.8c-0.2,0-0.5-0.1-0.7-0.4
		c0,0-0.3-0.5-0.3-0.5c-0.5-0.9-1.3-2.2-3.1-3.1c-0.8-0.4-1.5-0.6-2.2-0.8c0.3-0.6,0.5-1.2,0.5-1.9c0-1.5-0.8-2.7-2-3.4
		c2.3-4.8,5.3-7.6,8.2-7.8c0.6,0,1.1,0.1,1.3,0.4c0.2,0.2,0.4,0.6,0.3,0.9c0,0.4-0.2,0.8-0.5,1.2c-0.9,1-2.3,2.7-2.1,4.8
		c0.2,1.9,1.4,3.2,3.2,3.5l2.8,0.5c0,0-0.1-2.9-0.1-2.9c0-0.4,0.1-0.5,0.1-0.6l0,0c3.4-0.7,11.3-2.5,11.6-11.6c0-0.2,0-0.3,0-0.5
		c0-3.1-1-5.7-2.9-7.7c-2.1-2.2-5.3-3.4-8.9-3.5c-4.3,0-7.9,1.4-10.7,4c0.3-0.6,0.5-1.2,0.8-1.7L159.4,199.4z"/>
	<path display="inline" fill="#878787" d="M926.4,287.4l9.9-5.2v-1h-23.8v1l9.2,4.9L905.9,331h-0.3l-17.3-45l10.6-3.8v-1h-31.8v1
		l9.3,3.8l24,58.2l-3.3,7.5c-2.1,4.6-5.9,11.8-8.8,14.2c-2.9-4-5.2-6.1-9.5-6.1c-3.8,0-6.4,2.9-6.4,6.4s3.2,6.7,9.3,6.7
		c7.4,0,13.5-6.4,18.7-19.6L926.4,287.4z M867.7,338.4l-0.3-1c-2.6,0.4-6,0.8-8.2,0.8c-4.5,0-8.2-0.6-10-1.8
		c-2.9-1.9-3.9-4.9-3.9-10.3v-39.4h22v-5.2h-22V265h-1l-8.9,13.7l-10.7,7.2v0.8h10.6v43.5c0,9.9,2.8,14.6,12.8,14.6
		C854.6,344.8,861.6,342.2,867.7,338.4 M799.8,288.5v50.9l-10.6,3.3v1h30.8v-1l-10.2-3.3v-60.1l-0.6-0.4l-19.2,4.6v0.8L799.8,288.5z
		 M798.2,258.3c0,4.2,3.1,7,6.6,7c4.5,0,7-3.1,7-7.3c0-4-3.2-6.8-6.7-6.8C800.7,251.2,798.2,254.2,798.2,258.3 M780.8,323.9
		c0-21.5-35-15.2-35-31.8c0-5.9,5.6-10.6,12.1-10.6c7.4,0,13.7,5.9,18.3,16.3l1.2-0.3l-0.4-15.5c-3.9-1.5-11.1-3.2-16.6-3.2
		c-13.4,0-21.9,8.6-21.9,19.6c0,20.9,34.3,15.5,34.3,31.2c0,7.8-5.3,13.4-13.7,13.4c-8.2,0-15.9-6.7-20.3-18.8l-1.3,0.1v17
		c6.4,2.8,12.7,4.3,19.6,4.3C770.9,345.8,780.8,336.9,780.8,323.9 M730.9,286.4c0-4-2.9-7.4-8.5-7.4c-6.4,0-13.8,6.1-18.2,14.8h-0.3
		v-14.5l-0.6-0.4l-19.1,4.6v0.8l9.6,4.2v50.9l-10,3.3v1h30.5v-1l-10.5-3.3v-41.7c2-5.2,8.1-10.3,13.2-10.7c1,4.2,3.3,6.5,7.1,6.5
		C728.2,293.5,730.9,290.6,730.9,286.4 M629.6,303.2c1-12.4,10.3-21.9,19.2-21.9c9.1,0,14.2,9.2,14.8,21.5L629.6,303.2z
		 M675.3,305.2c0-15.5-8.6-26.2-25.9-26.2c-17.3,0-30.8,14.8-30.8,34.4c0,19.4,12.7,32.5,30.5,32.5c9.1,0,16.9-4.3,25.5-12.5
		l-0.6-1.1c-7.7,4.3-13.9,5.9-20.8,5.9c-16,0-24.5-13.1-23.8-32.9H675.3z M568.5,286l10.6-3.8v-1h-31.9v1l9.5,3.8l24.8,59.2h1.7
		l24.5-57.8l10.2-5.2v-1h-24.5v1l9.6,4.9L594,311l-7.9,19.5h-0.3L568.5,286z M524.6,288.5v50.9l-10.6,3.3v1h30.8v-1l-10.2-3.3v-60.1
		l-0.6-0.4l-19.2,4.6v0.8L524.6,288.5z M522.9,258.3c0,4.2,3.1,7,6.5,7c4.5,0,7-3.1,7-7.3c0-4-3.2-6.8-6.7-6.8
		C525.5,251.2,522.9,254.2,522.9,258.3 M498.1,298.4c0-9.9-3.8-19.4-16.3-19.4c-7.5,0-15.5,3.9-23.8,11.7h-0.3v-11.4l-0.6-0.4
		l-19.1,4.6v0.8l9.6,4.2v50.9l-10,3.3v1h29.5v-1l-9.5-3.3V293c5.6-3.2,10.6-5.9,16.4-5.9c10,0,13.9,6.7,13.9,17.3v35l-9.6,3.3v1
		h29.7v-1l-10-3.3V298.4z M418.3,260.2v51.6c0,14.8-7.7,27.4-24.4,27.4c-18.1,0-28-7.7-28-27.3v-53l14.6-2.5v-1.5h-41.8v1.5
		l14.6,2.5v55.9c0,20.6,12.4,31.2,34.6,31.2c19.6,0,33.7-13.4,33.7-31.2v-54.6l11.3-3.8v-1.5H407v1.5L418.3,260.2z"/>
	<path display="inline" fill="#878787" d="M765.1,167c0-4-2.9-7.4-8.5-7.4c-6.4,0-13.8,6.1-18.3,14.8h-0.3v-14.5l-0.6-0.4l-19.1,4.6
		v0.8l9.6,4.2v50.9l-10,3.3v1h30.5v-1l-10.5-3.3v-41.7c2-5.2,8.1-10.3,13.2-10.7c1,4.2,3.3,6.5,7.1,6.5
		C762.5,174.1,765.1,171.2,765.1,167 M663.8,183.7c1-12.4,10.3-21.9,19.2-21.9c9.1,0,14.2,9.2,14.8,21.5L663.8,183.7z M709.5,185.8
		c0-15.5-8.6-26.2-25.9-26.2s-30.8,14.8-30.8,34.4c0,19.4,12.7,32.5,30.5,32.5c9.1,0,16.9-4.3,25.5-12.5l-0.6-1.1
		c-7.7,4.3-13.9,5.9-20.8,5.9c-16,0-24.5-13.1-23.8-32.9H709.5z M636.9,179c0-9.9-3.8-19.4-16.3-19.4c-7.5,0-15.5,3.9-23.8,11.7
		h-0.3v-11.4l-0.6-0.4l-19.1,4.6v0.8l9.6,4.2v50.9l-10,3.3v1H606v-1l-9.5-3.3v-46.4c5.6-3.2,10.6-5.9,16.4-5.9
		c10,0,13.9,6.7,13.9,17.3v35l-9.6,3.3v1H647v-1l-10-3.3V179z M572.7,219l-0.3-1c-2.6,0.4-6,0.8-8.2,0.8c-4.5,0-8.2-0.6-10-1.8
		c-2.9-2-3.9-4.9-3.9-10.3v-39.4h22v-5.2h-22v-16.6h-1l-8.9,13.7l-10.7,7.2v0.8h10.6v43.5c0,9.9,2.8,14.6,12.8,14.6
		C559.6,225.4,566.6,222.7,572.7,219 M526.3,167c0-4-2.9-7.4-8.5-7.4c-6.4,0-13.8,6.1-18.3,14.8h-0.3v-14.5l-0.6-0.4l-19.1,4.6v0.8
		l9.6,4.2v50.9l-10,3.3v1h30.5v-1l-10.4-3.3v-41.7c1.9-5.2,8.1-10.3,13.2-10.7c1,4.2,3.3,6.5,7.1,6.5
		C523.6,174.1,526.3,171.2,526.3,167 M453.8,214c-4.7,3.5-10,5.4-14.5,5.4c-7.2,0-11.6-3.3-11.6-9.8c0-7.5,8.1-16.2,26.1-16.2V214z
		 M463.9,179.5c0-12.8-6-19.8-18.5-19.8c-11.7,0-25.9,7.1-25.9,15c0,3.6,2.1,6.4,6.3,6.4c3.9,0,6.1-2.8,6.1-6.3c0-2.6-1.5-5.4-4-7.5
		c3.2-1.3,7.3-2,11-2c9.1,0,15,5.6,15,15.3v9.5c-21.7,2.5-36.8,8.8-36.8,21.3c0,8.9,5.9,14.9,14.9,14.9c7.5,0,15.5-4.3,21.9-10.7
		h0.3c0,7.4,2.6,10.7,7.9,10.7c4.6,0,9.6-2,13.7-4l-0.1-1c-8.5,1-11.7-0.7-11.7-5.2V179.5z M398.7,159.5c0,14.5-7.9,22.3-21.5,22.3
		c-4.2,0-7.7-0.3-10.2-0.7V139c2.9-0.3,6.1-0.6,9.6-0.6C389.7,138.4,398.7,146.2,398.7,159.5 M412.3,159.9
		c0-13.7-10.6-24.4-31.9-24.4h-40.3v1.5l14.6,2.5v80.7l-14.6,2.5v1.5h41.5v-1.5l-14.6-2.5v-36.4c4.5,0.7,9.5,1.1,14.1,1.1
		C401.3,185,412.3,172.3,412.3,159.9"/>
</g>
<g display="none">
	<g display="inline">
		<path fill="#FFFFFF" d="M502.7,503c-138.5,0-251.4-112.7-251.5-251.3c-0.1-67.2,26-130.4,73.5-177.9C372.2,26.3,435.3,0.1,502.5,0
			c138.8,0,251.6,112.7,251.7,251.3C754.3,390,641.6,502.9,502.9,503H502.7z"/>
	</g>
	<g display="inline">
		<path d="M502.5,6.2L502.5,6.2c135.2,0,245.4,109.9,245.5,245.1c0.1,135.2-109.8,245.4-245,245.5h-0.2
			c-135.1,0-245.1-109.9-245.2-245c-0.1-65.5,25.4-127.1,71.7-173.5C375.4,31.9,437,6.3,502.5,6.2 M502.5,0
			c-67.2,0.1-130.3,26.3-177.8,73.8c-47.5,47.5-73.6,110.7-73.5,177.9C251.3,390.3,364.1,503,502.7,503h0.2
			c138.7-0.1,251.4-113.1,251.3-251.7C754.1,112.7,641.3,0,502.5,0L502.5,0z"/>
	</g>
	<g display="inline">
		<g>
			<path d="M502.7,212.6c-28.1,0-50.9-22.8-50.9-50.9c0-28.1,22.8-50.9,50.9-50.9c28.1,0,50.9,22.8,50.9,50.9
				C553.6,189.8,530.8,212.6,502.7,212.6z M502.7,114.4c-26.1,0-47.3,21.2-47.3,47.3c0,26.1,21.2,47.3,47.3,47.3
				c26.1,0,47.3-21.2,47.3-47.3C550,135.6,528.8,114.4,502.7,114.4z"/>
			<path d="M476.2,134.7v36.6c0,14.8,12,26.8,26.8,26.8c14.8,0,26.8-12,26.8-26.8v-36.6H476.2z M480.5,177.5l3.4-5.8l3.4,5.8H480.5z
				 M491.7,177.5l-5.6-9.7l2.7-4.4l8.1,14.2H491.7z M501.3,177.5l-10.4-18l2.6-4.4l12.8,22.4H501.3z M510.8,177.5l-15.2-26.2
				l2.6-4.3l17.5,30.5H510.8z M520.2,177.5l-19.8-34.4l2.6-4.4l22.3,38.8H520.2z"/>
		</g>
		<g>
			<path d="M372.6,292.4h6.8c11,0,12.4-6.5,12.4-23.5c0-16.9-1.4-23.5-12.4-23.5h-6.8V292.4z M382,233.7c18.9,0,24.8,10,24.8,35.5
				c0,25.4-5.9,35.5-24.8,35.5h-24.3v-70.9H382z M414.6,233.7h38.3v12h-23.4v15.2H451v12.4h-21.5v18.9h23.4v12.5h-38.3V233.7z
				 M493.8,276.5l-7.1-29.3l-7.5,29.3H493.8z M496.8,288.9h-20.6l-3.7,15.8h-14.9l20-71h18.9l19.7,71h-15.6L496.8,288.9z
				 M520.8,233.7h14.8v30.8l18.4-30.8h15.5L549,266.3l20.5,38.3h-17.2l-16.7-34.5v34.5h-14.8V233.7z M576.1,233.7h14.4v70.9h-14.4
				V233.7z M612.8,258.2v46.4H600v-70.9h17.8l17.1,43.7v-43.7h13v70.9h-16.3L612.8,258.2z"/>
			<g>
				<path d="M378.4,346v-22.7c0-0.2,0.2-0.4,0.5-0.5c0.4-0.2,0.8-0.3,1.3-0.4s1-0.2,1.5-0.2c0.5-0.1,0.9-0.1,1.2-0.1
					c0.4,0,0.8,0.2,1.1,0.5c0.3,0.3,0.4,0.7,0.4,1v22.7c0,2.5-0.3,4.5-0.8,6.2c-0.6,1.7-1.4,3-2.5,4c-1.1,1-2.5,1.8-4.2,2.2
					c-1.7,0.4-3.7,0.7-5.9,0.7h-0.4c-2.2,0-4.1-0.2-5.8-0.7c-1.7-0.4-3-1.2-4.1-2.2c-1.1-1-1.9-2.4-2.5-4c-0.6-1.7-0.8-3.7-0.8-6.2
					v-23c0-0.2,0.2-0.4,0.5-0.5c0.4-0.2,0.8-0.3,1.3-0.4c0.5-0.1,1-0.2,1.5-0.2c0.5-0.1,0.9-0.1,1.2-0.1c0.4,0,0.8,0.2,1.1,0.5
					c0.3,0.3,0.5,0.7,0.5,1V346c0,1.4,0.1,2.7,0.3,3.7c0.2,1,0.6,1.8,1.2,2.5c0.6,0.6,1.3,1.1,2.2,1.4c0.9,0.3,2.1,0.5,3.5,0.5h0.4
					c1.4,0,2.6-0.2,3.6-0.5c1-0.3,1.7-0.8,2.3-1.4c0.6-0.6,1-1.5,1.2-2.5C378.3,348.7,378.4,347.5,378.4,346z"/>
				<path d="M416.4,348.3v-25.2c0-0.2,0.2-0.4,0.6-0.5c0.4-0.1,0.8-0.2,1.3-0.3c0.5-0.1,1-0.1,1.5-0.2c0.5,0,0.9-0.1,1.2-0.1
					c0.9,0,1.3,0.5,1.3,1.5v34.5c0,0.4-0.2,0.7-0.5,1c-0.3,0.2-0.7,0.4-1,0.4c-0.3,0-0.6,0-1.1,0c-0.5,0-0.9-0.1-1.4-0.2
					c-0.5-0.1-0.9-0.2-1.2-0.3c-0.4-0.1-0.6-0.3-0.8-0.5l-16.3-25.1v24.7c0,0.4-0.2,0.7-0.5,1s-0.7,0.4-1.1,0.4
					c-0.3,0-0.7,0-1.2-0.1c-0.5,0-1-0.1-1.5-0.2s-0.9-0.2-1.2-0.3c-0.4-0.2-0.5-0.3-0.5-0.5v-35.2c0-0.2,0.2-0.4,0.5-0.5
					c0.4-0.2,0.8-0.3,1.2-0.3c0.5-0.1,1-0.1,1.5-0.2c0.5,0,0.9-0.1,1.2-0.1c0.4,0,0.7,0.1,0.9,0.3c0.3,0.2,0.5,0.5,0.6,0.7
					L416.4,348.3z"/>
				<path d="M438.1,358.1c0,0.4-0.2,0.7-0.5,1c-0.3,0.3-0.7,0.4-1.1,0.4c-0.3,0-0.7,0-1.2-0.1c-0.5,0-1-0.1-1.5-0.2
					c-0.5-0.1-0.9-0.2-1.3-0.3c-0.4-0.2-0.5-0.3-0.5-0.5v-35.2c0-0.2,0.2-0.4,0.5-0.5c0.4-0.2,0.8-0.3,1.3-0.3
					c0.5-0.1,1-0.1,1.5-0.2c0.5,0,0.9-0.1,1.2-0.1c0.4,0,0.8,0.1,1.1,0.4c0.3,0.3,0.5,0.6,0.5,1V358.1z"/>
				<path d="M460.2,349.2l7.6-26c0.5-0.5,1-0.8,1.6-0.9c0.6-0.1,1.3-0.2,2.1-0.2c0.3,0,0.7,0,1,0.1c0.4,0,0.7,0.1,0.9,0.2
					c0.3,0.1,0.4,0.3,0.6,0.5c0.1,0.2,0.1,0.5,0,0.9l-11.6,34.8c-0.1,0.3-0.2,0.5-0.5,0.6c-0.3,0.1-0.6,0.2-0.9,0.2
					c-1.1,0-2-0.1-2.8-0.2c-0.8-0.1-1.2-0.3-1.4-0.6l-11.6-34.8c-0.1-0.3-0.1-0.6,0-0.8c0.1-0.2,0.3-0.4,0.5-0.5
					c0.2-0.1,0.4-0.2,0.7-0.3c0.3-0.1,0.5-0.1,0.6-0.1c0.5,0,1,0,1.5,0.1c0.5,0,1,0.1,1.4,0.2c0.4,0.1,0.8,0.2,1.1,0.4
					c0.3,0.2,0.5,0.4,0.6,0.7l7.7,25.8c0.1,0.4,0.2,0.8,0.3,1.3c0.1,0.5,0.1,0.9,0.2,1.2c0-0.4,0.1-0.8,0.1-1.2
					C459.9,350,460,349.6,460.2,349.2z"/>
				<path d="M481,357.8V324c0-0.4,0.2-0.8,0.5-1c0.3-0.2,0.7-0.3,1.1-0.3h20.1c0.4,0,0.7,0.2,0.9,0.5c0.3,0.3,0.4,0.6,0.4,1
					c0,0.3,0,0.6-0.1,1.1c0,0.5-0.1,0.9-0.2,1.3c-0.1,0.4-0.2,0.8-0.3,1.1c-0.1,0.3-0.3,0.5-0.5,0.5h-16v9.7h13.8
					c0.3,0,0.6,0.1,0.9,0.4c0.3,0.3,0.4,0.6,0.4,1c0,0.3,0,0.6-0.1,1.1c0,0.5-0.1,0.9-0.2,1.3c-0.1,0.4-0.2,0.8-0.3,1.1
					c-0.1,0.3-0.3,0.5-0.5,0.5h-14v10.3h15.7c0.4,0,0.7,0.1,0.9,0.4s0.4,0.6,0.4,1c0,0.3,0,0.6-0.1,1.1c0,0.4-0.1,0.9-0.2,1.3
					c-0.1,0.4-0.2,0.8-0.3,1.1c-0.1,0.3-0.3,0.5-0.5,0.5h-19.7c-0.5,0-1-0.1-1.5-0.3C481.3,358.3,481,358,481,357.8z"/>
				<path d="M512.6,358.4V324c0-0.4,0.2-0.7,0.5-0.9c0.3-0.3,0.7-0.4,1.1-0.4h11.1c2.3,0,4.3,0.2,5.9,0.5c1.6,0.3,2.9,0.9,4,1.8
					c1,0.8,1.8,1.9,2.3,3.3c0.5,1.4,0.7,3.2,0.7,5.3v1.1c0,1.6-0.1,2.9-0.4,4.1c-0.3,1.2-0.6,2.2-1.2,3c-0.5,0.8-1.2,1.5-2.1,2
					c-0.9,0.5-1.9,0.9-3.2,1.2l7,12.1c0.4,0.6,0.6,1.1,0.6,1.5c0,0.2-0.1,0.4-0.3,0.5c-0.2,0.1-0.4,0.2-0.5,0.3
					c-0.2,0.1-0.4,0.1-0.6,0.1c-0.2,0-0.4,0-0.5,0c-0.3,0-0.7,0-1.1-0.1s-0.9-0.1-1.4-0.2c-0.5-0.1-0.9-0.2-1.3-0.4
					c-0.4-0.2-0.7-0.4-0.8-0.7l-7.4-12.6h-6.2v12.6c0,0.4-0.2,0.7-0.5,1c-0.3,0.2-0.7,0.4-1.1,0.4c-0.3,0-0.7,0-1.2-0.1
					c-0.5,0-1-0.1-1.5-0.2c-0.5-0.1-0.9-0.2-1.3-0.3C512.8,358.7,512.6,358.6,512.6,358.4z M525.5,328h-7v12.1h7
					c1.4,0,2.5-0.1,3.3-0.2c0.8-0.2,1.5-0.4,1.9-0.8c0.5-0.4,0.8-1,0.9-1.7c0.2-0.7,0.2-1.6,0.2-2.8v-1.1c0-1.1-0.1-2.1-0.2-2.8
					c-0.2-0.7-0.5-1.3-0.9-1.7c-0.5-0.4-1.1-0.7-1.9-0.8C528,328.1,526.9,328,525.5,328z"/>
				<path d="M546.4,353.2c0.3,0.1,0.7,0.2,1.2,0.3c0.6,0.1,1.2,0.3,1.9,0.4c0.7,0.1,1.5,0.3,2.4,0.4c0.9,0.1,1.7,0.2,2.6,0.2
					c0.9,0,1.8-0.1,2.7-0.2c0.9-0.2,1.6-0.4,2.3-0.8c0.7-0.4,1.2-0.8,1.6-1.4c0.4-0.6,0.6-1.3,0.6-2.2c0-1.2-0.4-2.2-1.2-3.1
					c-0.8-0.8-1.8-1.6-3-2.4c-1.2-0.7-2.5-1.5-3.9-2.2c-1.4-0.8-2.7-1.6-3.9-2.6c-1.2-1-2.2-2.2-3-3.5c-0.8-1.4-1.2-3-1.2-4.9
					c0-1.6,0.3-3,0.9-4.2c0.6-1.1,1.4-2.1,2.4-2.8c1-0.7,2.3-1.2,3.7-1.6c1.4-0.3,3-0.5,4.8-0.5c0.4,0,0.9,0,1.7,0.1
					c0.8,0,1.5,0.1,2.4,0.2c0.8,0.1,1.7,0.2,2.5,0.3c0.8,0.1,1.5,0.3,2,0.6c0.5,0.2,0.8,0.4,0.9,0.7c0.1,0.2,0.1,0.6,0.1,1.2
					c-0.1,0.9-0.3,1.6-0.6,2.2c-0.3,0.6-0.7,0.8-1.3,0.7c-0.8-0.2-1.8-0.3-2.9-0.5c-1.1-0.2-2.3-0.3-3.6-0.3c-2.1,0-3.8,0.3-5.1,0.9
					c-1.3,0.6-2,1.6-2,3c0,1.1,0.4,2.1,1.2,2.8c0.8,0.8,1.8,1.5,3,2.3c1.2,0.7,2.5,1.5,3.9,2.2c1.4,0.8,2.7,1.6,3.9,2.7
					c1.2,1,2.2,2.2,3,3.7c0.8,1.4,1.2,3.2,1.2,5.2c0,1.9-0.4,3.5-1.1,4.7c-0.7,1.2-1.7,2.2-2.9,2.9c-1.2,0.7-2.6,1.2-4.1,1.5
					c-1.6,0.3-3.2,0.4-4.8,0.4c-0.8,0-1.6,0-2.4-0.1c-0.8-0.1-1.7-0.1-2.5-0.2c-0.8-0.1-1.6-0.2-2.3-0.4c-0.7-0.1-1.3-0.3-1.8-0.5
					c-0.5-0.2-0.8-0.4-0.9-0.6c-0.1-0.2-0.1-0.6-0.1-1.1c0.1-1,0.3-1.8,0.6-2.5C545.6,353.4,546,353.1,546.4,353.2z"/>
				<path d="M581.7,358.1c0,0.4-0.2,0.7-0.5,1c-0.3,0.3-0.7,0.4-1.1,0.4c-0.3,0-0.7,0-1.2-0.1c-0.5,0-1-0.1-1.5-0.2
					c-0.5-0.1-0.9-0.2-1.3-0.3c-0.4-0.2-0.5-0.3-0.5-0.5v-35.2c0-0.2,0.2-0.4,0.5-0.5c0.4-0.2,0.8-0.3,1.3-0.3
					c0.5-0.1,1-0.1,1.5-0.2c0.5,0,0.9-0.1,1.2-0.1c0.4,0,0.8,0.1,1.1,0.4c0.3,0.3,0.5,0.6,0.5,1V358.1z"/>
				<path d="M605,328.1v30c0,0.4-0.2,0.7-0.5,1s-0.7,0.4-1.1,0.4c-0.3,0-0.7,0-1.2-0.1s-1-0.1-1.5-0.2s-0.9-0.2-1.2-0.3
					c-0.4-0.2-0.5-0.3-0.5-0.5v-30.3h-9.2c-0.4,0-0.7-0.1-0.9-0.4c-0.3-0.3-0.4-0.6-0.4-1c0-0.3,0-0.6,0.1-1.1
					c0-0.4,0.1-0.9,0.2-1.3c0.1-0.4,0.2-0.8,0.3-1.1c0.1-0.3,0.3-0.5,0.5-0.5h24.8c0.4,0,0.7,0.1,0.9,0.4c0.3,0.3,0.4,0.6,0.4,1
					c0,0.3,0,0.6-0.1,1.1c0,0.5-0.1,0.9-0.2,1.3c-0.1,0.4-0.2,0.8-0.3,1.1c-0.1,0.3-0.3,0.5-0.5,0.5H605z"/>
				<path d="M636.9,345.6v12.5c0,0.4-0.2,0.7-0.5,1c-0.3,0.3-0.7,0.4-1.1,0.4c-0.3,0-0.7,0-1.2-0.1c-0.5,0-1-0.1-1.5-0.2
					c-0.5-0.1-0.9-0.2-1.3-0.3c-0.4-0.2-0.5-0.3-0.5-0.5v-12.8L620,324.2c-0.4-0.7-0.4-1.3-0.2-1.6c0.3-0.3,0.8-0.5,1.6-0.5
					c0.5,0,0.9,0,1.4,0c0.5,0,0.9,0.1,1.4,0.1c0.4,0.1,0.8,0.2,1.1,0.3c0.3,0.1,0.5,0.3,0.6,0.5l8,16.4l8-16.4
					c0.1-0.2,0.3-0.4,0.6-0.5c0.3-0.1,0.7-0.2,1.1-0.3c0.4-0.1,0.9-0.1,1.4-0.1c0.5,0,1,0,1.4,0c0.8,0,1.3,0.2,1.5,0.5
					c0.3,0.3,0.2,0.9-0.2,1.6L636.9,345.6z"/>
			</g>
		</g>
	</g>
</g>
<rect x="245.9" y="170.4" fill="#164194" width="13.2" height="13.2"/>
<rect x="245.9" y="196.4" fill="#164194" width="13.2" height="103.6"/>
<path fill-rule="evenodd" clip-rule="evenodd" fill="#164194" d="M284.7,170.4h13.2v26h51.6v12.8h-51.6V274
	c0,7.2,5.6,13.2,12.8,13.2h38.8v12.8h-38.8c-13.5,0-26-10.8-26-26v-64.8h-19.4v-12.8h19.4V170.4z"/>
<path fill="#164194" d="M218.3,235.2h-86.5c0.3-9.5,2.6-16.1,7.2-19.7c3-2.6,6.9-4.3,12.5-5.3c5.3-1.3,13.2-1.6,23.7-1.6
	c10.2,0,18.1,0.3,23.7,1.6c5.3,1,9.5,2.6,12.5,5.3C216,219.1,218.3,225.6,218.3,235.2z M131.8,248.3h101.3c0-11.5-0.7-20.1-2-25.6
	c-1.3-5.6-3.6-10.5-6.9-14.8c-4.3-4.9-9.5-8.5-16.4-10.2c-6.6-1.6-17.8-2.6-32.9-2.6c-15.5,0-26.3,1-33.2,2.6
	c-6.9,1.6-12.2,5.3-16.1,10.2c-3.6,4.3-5.9,9.2-6.9,14.8c-1.3,5.6-2,14.1-2.3,25.6c0.3,11.2,1,19.7,2.3,25.3
	c1,5.6,3.3,10.5,6.9,14.8c3.9,4.9,9.2,8.5,16.1,10.2c6.9,2,17.8,2.6,33.2,2.6c15.1,0,26.3-0.7,32.9-2.6c6.9-1.6,12.2-5.3,16.4-10.2
	c2.6-3.3,4.6-7.2,5.9-11.2h-15.5c-1,1.3-2,2.6-3.3,3.9c-3,2.3-7.2,4.3-12.5,5.3c-5.6,1-13.5,1.3-23.7,1.3c-10.5,0-18.4-0.3-23.7-1.3
	c-5.6-1-9.5-3-12.5-5.3c-3.9-3.3-6.2-8.9-6.9-16.4C131.8,259.5,131.8,253.6,131.8,248.3z"/>
<path fill-rule="evenodd" clip-rule="evenodd" fill="#164194" d="M233.1,481.1c128.6,0,233.1-104.2,233.1-232.8
	c0-128.9-104.6-233.1-233.1-233.1c-42.4,0-82.2,11.2-116.4,31.2l12.8,22.4c30.6-17.8,65.8-27.6,103.6-27.6
	c114.4,0,207.1,92.7,207.1,207.1c0,114.1-92.7,207.1-207.1,207.1S26,362.4,26,248.3H0C0,376.9,104.6,481.1,233.1,481.1z"/>
<path fill-rule="evenodd" clip-rule="evenodd" fill="#6DB22D" d="M233.1,429.5c67.1,0,125.6-36.5,156.8-90.7l-22.4-12.8
	c-27,46.4-76.9,77.6-134.5,77.6c-85.8,0-155.2-69.7-155.2-155.2c0-85.8,69.4-155.5,155.2-155.5c57.5,0,107.5,31.2,134.5,77.6
	l22.4-12.8c-31.2-54.2-89.8-90.7-156.8-90.7c-100,0-181.2,81.2-181.2,181.5C51.9,348.3,133.2,429.5,233.1,429.5z"/>
<g>
	<path fill="#164194" d="M531,196.6h69.7c31.2,0,38.9,1.7,46.5,9.9c6.7,7.3,8.8,17.3,8.8,41.7c0,22.9-3.2,35.9-10.8,43.2
		c-7.3,7-15,8.5-43.5,8.5H531V196.6z M601.2,287.8c19.5,0,20.2,0,25.8-1.4c10.9-2.6,15.3-13.8,15.3-38.9c0-16-2.1-27-6.1-32.1
		c-3.3-4-8-5.9-17.3-6.5c-2.7-0.3-7.1-0.3-18.5-0.3h-55.9v79.2H601.2z"/>
	<path fill="#164194" d="M679.1,196.6v13.5H668v-13.5H679.1z M679.1,228.2v71.7H668v-71.7H679.1z"/>
	<path fill="#164194" d="M781.6,228.2v53.8c0,22-1.5,29.9-6.8,35.9c-6.4,7.1-14.4,8.8-40.6,8.8c-23.5,0-33.2-2.6-38.8-10.4
		c-2.6-3.6-3.3-6.2-3.3-12.9h11.5c0.9,10.5,6.8,13.3,29.4,13.3c21.2,0,29.2-1.5,33-6.5c3.2-4,3.8-7.6,4.4-22.3h-0.8
		c-6.1,7.7-11.7,9.3-34.2,9.3c-19.7,0-28.9-1.7-34.5-6c-7.3-5.7-10.6-14.7-10.6-29.1c0-16.7,4.8-26.6,15.2-31.3
		c6.1-2.6,14.2-3.6,32.3-3.6c15.6,0,20.8,0.8,25.6,3.6c3.2,1.9,4.7,3.6,6.7,6.5h0.6l-0.2-9.1H781.6z M709.8,241
		c-5.2,2.9-7.7,10.1-7.7,21.4c0,12.5,3,19.4,9.7,22.5c3.8,1.7,11.7,2.5,24.4,2.5c15.6,0,22.9-1.1,27.1-4c5.2-3.7,7.1-9.9,7.1-22.1
		c0-19.8-5.8-24-32.7-24C722.4,237.2,714.4,238.3,709.8,241z"/>
	<path fill="#164194" d="M805.3,196.6v13.5h-11.1v-13.5H805.3z M805.3,228.2v71.7h-11.1v-71.7H805.3z"/>
	<path fill="#164194" d="M839.8,210.4v17.8h49.1v9.8h-49.1v31c0.3,13.6,0.3,14.1,2.6,17c2.9,3.6,7.9,5,18.5,5c9.9,0,13.6-1.1,16.1-5
		c1.7-2.6,2.1-5.3,2.1-14.1v-4.5h11.1v4.5c0,11.2-0.9,15.8-3.8,20.1c-4.1,6.4-11.7,8.8-26.5,8.8c-15,0-23-2.3-27.1-8.1
		c-3-4.3-3.9-8.8-3.9-20.1v-34.7h-17.3v-9.8h17.3v-17.8H839.8z"/>
	<path fill="#164194" d="M898.7,249.7v-3.1c0-15,8.9-19.4,39.4-19.4c23.8,0,32,1.7,37.9,8.1c4.8,5,5.9,9.8,5.9,26.8v37.8h-11.1
		l0.1-8.4h-0.5c-5.3,7.7-10.5,9.3-31.8,9.3c-25.2,0-31.8-0.9-37-5c-4.5-3.7-6.1-8.1-6.1-16.7c0-11.3,2.7-16.9,10-19.7
		c4.2-1.7,10.9-2.3,25.8-2.3c28.8,0,33.6,0.9,38.5,7.7h0.9v-7.7c0-7.4-0.8-10.5-3.3-13.6c-3.9-5-10.3-6.4-28.6-6.4
		c-24.1,0-28.3,1.7-28.5,11.6v0.9H898.7z M911.6,269.7c-2.7,1.9-4.1,5-4.1,9.6c0,5.3,1.5,8.1,5.5,9.8c3.2,1.4,10.8,1.9,28,1.9
		c23.5,0,29.1-2.3,29.1-11.9c0-9.3-6.7-11.8-31.4-11.8C920.1,267.2,914.8,267.7,911.6,269.7z"/>
	<path fill="#164194" d="M1005.1,196.6v103.3h-11.1V196.6H1005.1z"/>
</g>
</svg>
